<svg width="18" height="18" viewBox="0 0 18 18" fill="none" xmlns="http://www.w3.org/2000/svg">
    <path d="M9.95316 2.75173C10.1782 2.52677 10.4834 2.40039 10.8016 2.40039C11.1198 2.40039 11.4249 2.52677 11.65 2.75173L17.05 8.15173C17.2749 8.37677 17.4013 8.68194 17.4013 9.00013C17.4013 9.31833 17.2749 9.6235 17.05 9.84853L11.65 15.2485C11.4236 15.4671 11.1205 15.5881 10.8059 15.5853C10.4912 15.5826 10.1903 15.4564 9.96778 15.2339C9.74529 15.0114 9.61909 14.7105 9.61635 14.3958C9.61362 14.0812 9.73457 13.7781 9.95316 13.5517L13.2016 10.2001H1.80156C1.4833 10.2001 1.17808 10.0737 0.953034 9.84866C0.727991 9.62362 0.601563 9.31839 0.601562 9.00013C0.601562 8.68187 0.727991 8.37665 0.953034 8.15161C1.17808 7.92656 1.4833 7.80013 1.80156 7.80013H13.2016L9.95316 4.44853C9.7282 4.2235 9.60182 3.91833 9.60182 3.60013C9.60182 3.28194 9.7282 2.97677 9.95316 2.75173Z" fill="#fdfbfe"></path>
</svg>