<svg width="113" height="25" viewBox="0 0 113 25" fill="none" xmlns="http://www.w3.org/2000/svg" class="simple-header__logo">
  <defs>
    <linearGradient id="linear0" gradientUnits="userSpaceOnUse" x1="-0.00000492073" y1="36.2034" x2="66.3081" y2="-64.8392" gradientTransform="matrix(0.674699,0,0,0.675676,0,0)">
      <stop offset="0" style="stop-color:rgb(72.54902%,65.490196%,96.078431%);stop-opacity:1;"></stop>
      <stop offset="1" style="stop-color:rgb(52.941176%,64.705882%,88.627451%);stop-opacity:1;"></stop>
    </linearGradient>
  </defs>
  <g id="surface1">
    <path style=" stroke:none;fill-rule:nonzero;fill:url(#linear0);" d="M 55.957031 9.246094 C 56.890625 9.675781 57.613281 10.21875 58.128906 10.863281 C 58.644531 11.511719 58.902344 12.230469 58.902344 13.023438 L 58.902344 13.238281 C 58.902344 15.035156 58.039062 16.410156 56.316406 17.359375 C 54.589844 18.304688 52.089844 18.777344 48.808594 18.777344 C 45.144531 18.777344 42.410156 18.148438 40.601562 16.890625 C 38.808594 15.640625 37.90625 13.753906 37.886719 11.222656 L 42.199219 11.222656 C 42.21875 12.527344 42.75 13.476562 43.796875 14.066406 C 44.863281 14.664062 46.566406 14.964844 48.917969 14.964844 C 52.605469 14.964844 54.449219 14.316406 54.449219 13.023438 L 54.449219 12.804688 C 54.449219 12.28125 54.171875 11.882812 53.621094 11.621094 C 53.070312 11.355469 52.21875 11.222656 51.070312 11.222656 L 45.429688 11.222656 L 45.429688 7.445312 L 50.710938 7.445312 C 51.835938 7.445312 52.660156 7.316406 53.171875 7.050781 C 53.6875 6.785156 53.945312 6.378906 53.945312 5.828125 L 53.945312 5.613281 C 53.945312 5.035156 53.464844 4.59375 52.507812 4.28125 C 51.550781 3.96875 50.1875 3.8125 48.414062 3.8125 C 46.210938 3.8125 44.625 4.113281 43.652344 4.710938 C 42.734375 5.28125 42.253906 6.191406 42.203125 7.445312 L 37.890625 7.445312 C 37.941406 5.035156 38.84375 3.199219 40.601562 1.941406 C 42.410156 0.648438 45.085938 0 48.628906 0 C 51.742188 0 54.148438 0.480469 55.847656 1.4375 C 57.546875 2.398438 58.398438 3.753906 58.398438 5.503906 L 58.398438 5.71875 C 58.398438 6.4375 58.191406 7.097656 57.769531 7.695312 C 57.351562 8.296875 56.746094 8.8125 55.957031 9.246094 Z M 15.34375 13.515625 C 15.382812 13.484375 15.429688 13.445312 15.472656 13.414062 C 15.910156 13.074219 16.464844 12.863281 17.066406 12.863281 C 17.671875 12.863281 18.230469 13.070312 18.671875 13.417969 C 18.71875 13.453125 18.773438 13.5 18.820312 13.535156 C 20.113281 14.535156 21.800781 14.820312 23.390625 14.820312 C 25.355469 14.820312 26.894531 14.371094 28.007812 13.472656 C 29.121094 12.574219 29.679688 11.320312 29.679688 9.714844 L 29.679688 9.171875 C 29.679688 7.519531 29.125 6.234375 28.023438 5.324219 C 26.925781 4.410156 25.378906 3.957031 23.390625 3.957031 C 21.789062 3.957031 20.007812 4.238281 18.726562 5.289062 L 18.730469 5.289062 C 18.28125 5.660156 17.699219 5.886719 17.070312 5.886719 C 16.441406 5.886719 15.863281 5.660156 15.414062 5.289062 L 15.410156 5.289062 C 14.132812 4.238281 12.34375 3.957031 10.746094 3.957031 C 8.757812 3.957031 7.214844 4.410156 6.113281 5.324219 C 5.011719 6.234375 4.460938 7.519531 4.460938 9.171875 L 4.460938 9.714844 C 4.460938 11.320312 5.015625 12.574219 6.128906 13.472656 C 7.246094 14.371094 8.785156 14.820312 10.746094 14.820312 C 12.34375 14.820312 14.054688 14.527344 15.34375 13.515625 Z M 17.070312 1.398438 C 17.253906 1.296875 17.449219 1.203125 17.644531 1.113281 C 19.273438 0.371094 21.199219 0 23.429688 0 C 25.628906 0 27.535156 0.371094 29.136719 1.113281 C 30.742188 1.859375 31.976562 2.921875 32.839844 4.300781 C 33.59375 5.507812 34.019531 6.90625 34.113281 8.496094 C 34.140625 9.058594 34.144531 9.660156 34.121094 10.226562 L 34.121094 12.804688 C 34.121094 13.359375 34.289062 13.78125 34.621094 14.085938 C 34.957031 14.382812 35.4375 14.53125 36.058594 14.53125 L 37.640625 14.53125 L 37.640625 18.347656 L 35.019531 18.347656 C 33.867188 18.347656 32.890625 18.148438 32.089844 17.753906 C 31.566406 17.496094 31.160156 17.125 30.851562 16.679688 C 30.335938 17.0625 29.765625 17.394531 29.136719 17.679688 C 27.535156 18.414062 25.628906 18.777344 23.429688 18.777344 C 21.226562 18.777344 19.308594 18.414062 17.679688 17.679688 C 17.46875 17.585938 17.265625 17.488281 17.070312 17.382812 C 16.871094 17.488281 16.667969 17.585938 16.457031 17.679688 C 14.832031 18.414062 12.914062 18.777344 10.710938 18.777344 C 8.507812 18.777344 6.605469 18.414062 5 17.679688 C 4.761719 17.574219 4.53125 17.457031 4.3125 17.335938 L 4.3125 24.460938 L 0 24.460938 L 0 10.304688 C 0 9.699219 -0.00390625 9.101562 0.0273438 8.496094 C 0.117188 6.90625 0.542969 5.507812 1.300781 4.300781 C 2.160156 2.921875 3.394531 1.859375 5 1.113281 C 6.605469 0.371094 8.507812 0 10.710938 0 C 12.9375 0 14.867188 0.371094 16.496094 1.113281 C 16.691406 1.203125 16.882812 1.300781 17.070312 1.398438 Z M 111.398438 0.433594 L 111.398438 18.347656 L 107.234375 18.347656 L 107.234375 4.964844 L 106.300781 6.65625 L 103.65625 11.382812 C 103.519531 11.625 103.429688 11.769531 103.285156 12 C 102.089844 13.84375 100.039062 14.964844 97.832031 14.964844 C 95.625 14.964844 93.574219 13.84375 92.378906 12 C 92.234375 11.769531 92.144531 11.625 92.007812 11.382812 L 89.363281 6.65625 L 88.429688 4.964844 L 88.429688 18.347656 L 84.265625 18.347656 L 84.265625 0.433594 L 90.40625 0.433594 L 95.617188 9.75 C 96.085938 10.53125 96.921875 11 97.832031 11 C 98.742188 11 99.578125 10.53125 100.046875 9.75 L 105.257812 0.433594 L 111.402344 0.433594 Z M 71.140625 18.777344 C 68.9375 18.777344 67.023438 18.414062 65.394531 17.679688 C 63.765625 16.949219 62.515625 15.898438 61.640625 14.53125 C 60.765625 13.167969 60.328125 11.558594 60.328125 9.714844 L 60.328125 9.171875 C 60.328125 7.300781 60.761719 5.679688 61.621094 4.296875 C 62.484375 2.921875 63.730469 1.859375 65.359375 1.113281 C 66.988281 0.371094 68.914062 0 71.140625 0 C 73.34375 0 75.25 0.371094 76.851562 1.113281 C 78.457031 1.859375 79.691406 2.921875 80.554688 4.296875 C 81.414062 5.679688 81.847656 7.300781 81.847656 9.171875 L 81.847656 9.714844 C 81.847656 11.558594 81.414062 13.167969 80.554688 14.53125 C 79.691406 15.902344 78.457031 16.949219 76.851562 17.679688 C 75.25 18.414062 73.34375 18.777344 71.140625 18.777344 Z M 71.105469 14.820312 C 73.070312 14.820312 74.609375 14.371094 75.722656 13.472656 C 76.835938 12.574219 77.390625 11.320312 77.390625 9.714844 L 77.390625 9.171875 C 77.390625 7.519531 76.839844 6.234375 75.738281 5.324219 C 74.640625 4.410156 73.09375 3.957031 71.105469 3.957031 C 69.070312 3.957031 67.507812 4.40625 66.417969 5.304688 C 65.328125 6.207031 64.785156 7.496094 64.785156 9.171875 L 64.785156 9.714844 C 64.785156 11.320312 65.339844 12.574219 66.453125 13.472656 C 67.570312 14.371094 69.117188 14.820312 71.105469 14.820312 Z M 71.105469 14.820312 "></path>
  </g>
</svg>